<svg xmlns="http://www.w3.org/2000/svg" width="21" height="20" viewBox="0 0 21 20" fill="none">
  <path d="M6.39062 10.3C6.39062 9.47754 6.61722 8.7071 7.01089 8.04741V5.24915H4.21262C3.10201 6.69153 2.5 8.44941 2.5 10.3C2.5 12.1506 3.10201 13.9084 4.21262 15.3508H7.01089V12.5526C6.61722 11.8929 6.39062 11.1224 6.39062 10.3Z" fill="#FBBD00"/>
  <path d="M10.8 14.7094L8.85474 16.6547L10.8 18.6C12.6507 18.6 14.4085 17.998 15.8509 16.8874V14.0921H13.0556C12.3901 14.4872 11.6165 14.7094 10.8 14.7094Z" fill="#0F9D58"/>
  <path d="M7.01091 12.5526L4.21265 15.3508C4.43424 15.6388 4.67421 15.9121 4.93105 16.169C6.49871 17.7366 8.58302 18.6 10.8 18.6V14.7094C9.19112 14.7094 7.781 13.8431 7.01091 12.5526Z" fill="#31AA52"/>
  <path d="M19.1 10.3C19.1001 9.79572 19.0546 9.29246 18.9641 8.79637L18.8912 8.39761H10.8V12.2882H14.7378C14.361 13.038 13.7772 13.664 13.0556 14.0921L15.8509 16.8874C16.1388 16.6658 16.4121 16.4258 16.669 16.169C18.2367 14.6013 19.1 12.517 19.1 10.3Z" fill="#3C79E6"/>
  <path d="M13.918 7.18209L14.2618 7.52595L17.0129 4.77489L16.6691 4.43102C15.1014 2.86336 13.0171 2 10.8 2L8.85474 3.94531L10.8 5.89062C11.9778 5.89062 13.0851 6.34926 13.918 7.18209Z" fill="#CF2D48"/>
  <path d="M10.8001 5.89062V2C8.58305 2 6.49875 2.86336 4.93105 4.43099C4.67419 4.68794 4.43422 4.96123 4.21265 5.24916L7.01091 8.04743C7.78103 6.75694 9.19116 5.89062 10.8001 5.89062Z" fill="#EB4132"/>
</svg>