<svg width="32" height="32" viewBox="0 0 32 32" fill="none" xmlns="http://www.w3.org/2000/svg">
<g id="Messages, Chat 1" clip-path="url(#clip0_655_5367)">
<circle id="Ellipse 2666" cx="16" cy="16" r="16" fill="#ECEBFD"/>
<g id="Group">
<path id="Vector" d="M23.1094 23.1114V10.4696C23.1094 9.59672 22.4019 8.88916 21.529 8.88916H10.4677C9.59476 8.88916 8.88721 9.59672 8.88721 10.4696V19.9514C8.88721 20.8243 9.59476 21.5318 10.4677 21.5318H20.1468L23.1094 23.1114Z" stroke="#4F43FF" stroke-width="1.3" stroke-linecap="round" stroke-linejoin="round"/>
<g id="Group 39769">
<path id="Vector_2" d="M16.3098 14.2441C16.4661 14.4004 16.5539 14.6123 16.5539 14.8333C16.5539 15.0543 16.4661 15.2663 16.3098 15.4226C16.1535 15.5789 15.9416 15.6667 15.7205 15.6667C15.4995 15.6667 15.2876 15.5789 15.1313 15.4226C15.0539 15.3452 14.9925 15.2533 14.9506 15.1522C14.9088 15.0511 14.8872 14.9428 14.8872 14.8333C14.8872 14.7239 14.9088 14.6155 14.9506 14.5144C14.9925 14.4133 15.0539 14.3215 15.1313 14.2441C15.2087 14.1667 15.3005 14.1053 15.4016 14.0634C15.5027 14.0216 15.6111 14 15.7205 14C15.83 14 15.9383 14.0216 16.0394 14.0634C16.1405 14.1053 16.2324 14.1667 16.3098 14.2441Z" fill="#4F43FF"/>
<path id="Vector_3" d="M19.8659 14.2441C20.0222 14.4004 20.11 14.6123 20.11 14.8333C20.11 15.0543 20.0222 15.2663 19.8659 15.4226C19.7097 15.5789 19.4977 15.6667 19.2767 15.6667C19.0557 15.6667 18.8437 15.5789 18.6874 15.4226C18.6101 15.3452 18.5487 15.2533 18.5068 15.1522C18.4649 15.0511 18.4434 14.9428 18.4434 14.8333C18.4434 14.7239 18.4649 14.6155 18.5068 14.5144C18.5487 14.4133 18.6101 14.3215 18.6874 14.2441C18.7648 14.1667 18.8567 14.1053 18.9578 14.0634C19.0589 14.0216 19.1673 14 19.2767 14C19.3861 14 19.4945 14.0216 19.5956 14.0634C19.6967 14.1053 19.7886 14.1667 19.8659 14.2441Z" fill="#4F43FF"/>
<path id="Vector_4" d="M12.7536 14.2441C12.9099 14.4004 12.9977 14.6123 12.9977 14.8333C12.9977 15.0543 12.9099 15.2663 12.7536 15.4226C12.6763 15.5 12.5844 15.5614 12.4833 15.6032C12.3822 15.6451 12.2738 15.6667 12.1644 15.6667C11.9434 15.6667 11.7314 15.5789 11.5751 15.4226C11.4189 15.2663 11.3311 15.0543 11.3311 14.8333C11.3311 14.6123 11.4189 14.4004 11.5751 14.2441C11.7314 14.0878 11.9434 14 12.1644 14C12.3854 14 12.5974 14.0878 12.7536 14.2441Z" fill="#4F43FF"/>
</g>
</g>
</g>
<defs>
<clipPath id="clip0_655_5367">
<rect width="32" height="32" fill="white"/>
</clipPath>
</defs>
</svg>
