<svg xmlns="http://www.w3.org/2000/svg" width="17" height="13" viewBox="0 0 17 13" fill="none">
<path d="M16.4851 5.96322L11.1693 0.646261C11.0268 0.503839 10.8337 0.423828 10.6323 0.423828C10.4309 0.423828 10.2377 0.503839 10.0953 0.646261C9.95285 0.788682 9.87284 0.981847 9.87284 1.18326C9.87284 1.38467 9.95285 1.57784 10.0953 1.72026L14.115 5.74003H0.759645C0.558175 5.74003 0.364956 5.82006 0.222495 5.96252C0.0800338 6.10498 0 6.2982 0 6.49967C0 6.70114 0.0800338 6.89436 0.222495 7.03682C0.364956 7.17928 0.558175 7.25932 0.759645 7.25932H14.115L10.0953 11.2791C10.0247 11.3496 9.96881 11.4333 9.93064 11.5255C9.89248 11.6176 9.87284 11.7164 9.87284 11.8161C9.87284 11.9158 9.89248 12.0146 9.93064 12.1067C9.96881 12.1988 10.0247 12.2826 10.0953 12.3531C10.1658 12.4236 10.2495 12.4795 10.3416 12.5177C10.4338 12.5559 10.5325 12.5755 10.6323 12.5755C10.732 12.5755 10.8308 12.5559 10.9229 12.5177C11.015 12.4795 11.0987 12.4236 11.1693 12.3531L16.4851 7.03722C16.5557 6.96673 16.6117 6.88301 16.6499 6.79087C16.688 6.69873 16.7077 6.59997 16.7077 6.50022C16.7077 6.40048 16.688 6.30172 16.6499 6.20957C16.6117 6.11743 16.5557 6.03372 16.4851 5.96322Z" fill="white"/>
</svg>