<svg xmlns="http://www.w3.org/2000/svg" width="87" height="84" viewBox="0 0 87 84" fill="none">
  <path d="M3.34787 46.0696L3.84841 45.2039L3.34787 46.0696L13.7168 52.0648C14.7678 52.6725 15.2842 53.9068 14.979 55.0819L12.0404 66.3967C11.1475 69.8343 14.2429 72.9824 17.6951 72.1476L29.8365 69.2119C30.9696 68.9379 32.1506 69.4218 32.7657 70.4121L39.2041 80.7792C41.043 83.7403 45.352 83.7403 47.1909 80.7792L53.6293 70.4122C54.2443 69.4218 55.4254 68.9379 56.5585 69.2119L68.6998 72.1476C72.152 72.9824 75.2474 69.8343 74.3546 66.3967L71.4159 55.0819C71.1107 53.9068 71.6271 52.6725 72.6782 52.0648L83.0471 46.0696C86.1776 44.2596 86.1776 39.7404 83.0471 37.9304L72.6782 31.9352C71.6271 31.3275 71.1107 30.0932 71.4159 28.9181L74.3546 17.6033C75.2474 14.1657 72.152 11.0177 68.6998 11.8524L56.5585 14.7881C55.4254 15.0621 54.2443 14.5782 53.6293 13.5879L47.1909 3.22079C45.352 0.25974 41.043 0.259732 39.2041 3.22079L32.7657 13.5879C32.1506 14.5782 30.9696 15.0621 29.8365 14.7881L17.6951 11.8524C14.2429 11.0176 11.1475 14.1657 12.0404 17.6033L14.979 28.9181C15.2842 30.0932 14.7678 31.3275 13.7168 31.9352L3.34787 37.9304C0.217376 39.7404 0.217378 44.2596 3.34787 46.0696Z" stroke="#6172F8" stroke-width="2"/>
</svg>