<svg width="81" height="80" viewBox="0 0 81 80" fill="none" xmlns="http://www.w3.org/2000/svg">
<g clip-path="url(#clip0_295_1234)">
<path d="M79.8061 58.206L71.6061 54.106L66.3873 40.531C66.3259 40.3705 66.232 40.2244 66.1116 40.1018C65.9911 39.9792 65.8467 39.8828 65.6873 39.8185L33.3061 26.8748C33.0796 26.7846 32.8318 26.7627 32.5931 26.8115C32.3544 26.8604 32.1351 26.9779 31.9623 27.1498L27.6436 31.4685C27.474 31.6415 27.3583 31.8599 27.3106 32.0974C27.2629 32.3348 27.2852 32.581 27.3748 32.806L40.3186 65.1873C40.3828 65.3467 40.4793 65.4911 40.6018 65.6115C40.7244 65.732 40.8706 65.8258 41.0311 65.8873L54.6061 71.106L58.7061 79.306C58.7924 79.4868 58.9209 79.6442 59.0808 79.765C59.2407 79.8857 59.4273 79.9662 59.6248 79.9998C59.6913 80.006 59.7583 80.006 59.8248 79.9998C60.1558 79.9984 60.4727 79.8658 60.7061 79.631L80.1311 60.206C80.274 60.0681 80.3821 59.898 80.4462 59.71C80.5103 59.522 80.5287 59.3213 80.4998 59.1248C80.4663 58.9272 80.3857 58.7407 80.265 58.5808C80.1443 58.4209 79.9869 58.2924 79.8061 58.206ZM29.9936 32.6435L30.6873 31.956L46.8061 48.0748C45.7438 49.58 45.285 51.4291 45.5204 53.2564C45.7558 55.0836 46.6683 56.756 48.0775 57.9428C49.4866 59.1297 51.2898 59.7445 53.1305 59.6659C54.9711 59.5872 56.7153 58.8207 58.018 57.518C59.3207 56.2152 60.0872 54.4711 60.1659 52.6304C60.2446 50.7898 59.6297 48.9866 58.4428 47.5774C57.256 46.1683 55.5836 45.2558 53.7564 45.0204C51.9291 44.785 50.0801 45.2437 48.5748 46.306L32.4561 30.1873L33.1436 29.4935L64.2498 41.9373L69.1561 54.6998L55.1998 68.656L42.4373 63.7498L29.9936 32.6435ZM52.8123 47.456C53.9357 47.4577 55.0238 47.8488 55.8912 48.5628C56.7586 49.2767 57.3517 50.2693 57.5693 51.3714C57.787 52.4736 57.6158 53.6171 57.0849 54.6072C56.554 55.5972 55.6962 56.3726 54.6578 56.8012C53.6193 57.2298 52.4644 57.2851 51.3897 56.9577C50.3151 56.6303 49.3872 55.9404 48.7641 55.0056C48.1411 54.0708 47.8614 52.9488 47.9727 51.8309C48.0841 50.713 48.5796 49.6683 49.3748 48.8748C50.2874 47.9651 51.5237 47.4548 52.8123 47.456ZM60.1686 76.6373L57.0436 70.3873L70.8748 56.556L77.1248 59.681L60.1686 76.6373Z" fill="#272626" stroke="#272626" stroke-width="0.7"/>
<path d="M24.4062 66.8749C24.1672 66.6489 23.8507 66.5231 23.5218 66.5231C23.1929 66.5231 22.8765 66.6489 22.6374 66.8749L21.0499 68.4624C16.8136 62.7127 14.4765 55.7846 14.3645 48.6436C14.2524 41.5026 16.371 34.5046 20.4249 28.6249C21.6395 29.2932 23.0379 29.5499 24.4107 29.3566C25.7834 29.1632 27.0565 28.5302 28.0392 27.5524C29.022 26.5746 29.6614 25.3047 29.8616 23.933C30.0618 22.5612 29.8121 21.1615 29.1499 19.9436C35.0297 15.8897 42.0277 13.7711 49.1687 13.8831C56.3096 13.9952 63.2377 16.3322 68.9874 20.5686L67.3749 22.1374C67.1425 22.3717 67.0122 22.6885 67.0124 23.0186C67.0115 23.1831 67.043 23.3462 67.1052 23.4985C67.1674 23.6508 67.2591 23.7893 67.3749 23.9061L72.8874 29.3749C73.1216 29.6077 73.4385 29.7384 73.7687 29.7384C74.0989 29.7384 74.4157 29.6077 74.6499 29.3749L80.1312 23.8936C80.2474 23.7775 80.3396 23.6397 80.4025 23.4879C80.4654 23.3362 80.4978 23.1735 80.4978 23.0092C80.4978 22.845 80.4654 22.6823 80.4025 22.5306C80.3396 22.3788 80.2474 22.241 80.1312 22.1249L74.6499 16.6436C74.4157 16.4108 74.0989 16.2801 73.7687 16.2801C73.4385 16.2801 73.1216 16.4108 72.8874 16.6436L70.7687 18.7499C65.5468 14.8205 59.3732 12.3517 52.8818 11.5971C46.3904 10.8425 39.8151 11.8293 33.8312 14.4561L41.0374 7.26861C41.8545 7.65904 42.7835 7.74741 43.6595 7.51806C44.5356 7.28871 45.3021 6.75646 45.823 6.01574C46.344 5.27501 46.5857 4.3737 46.5053 3.4717C46.425 2.5697 46.0277 1.72533 45.384 1.08838C44.7403 0.451423 43.8918 0.0630727 42.989 -0.00778096C42.0862 -0.0786346 41.1875 0.172589 40.4523 0.701323C39.7171 1.23006 39.193 2.00212 38.9729 2.88053C38.7528 3.75895 38.8509 4.68694 39.2499 5.49986L27.0874 17.6811C25.8525 16.8527 24.3683 16.4788 22.8884 16.6232C21.4084 16.7677 20.0245 17.4214 18.973 18.4729C17.9215 19.5244 17.2677 20.9083 17.1233 22.3883C16.9789 23.8683 17.3528 25.3525 18.1812 26.5874L5.99994 38.7499C5.18383 38.3522 4.25316 38.2567 3.37332 38.4804C2.49347 38.7041 1.72143 39.2325 1.19438 39.9717C0.667324 40.7109 0.4194 41.613 0.49466 42.5177C0.569919 43.4224 0.963488 44.2712 1.60543 44.9131C2.24737 45.5551 3.09611 45.9486 4.00082 46.0239C4.90554 46.0992 5.80764 45.8512 6.54683 45.3242C7.28601 44.7971 7.81441 44.0251 8.03812 43.1452C8.26182 42.2654 8.16636 41.3347 7.76869 40.5186L14.9749 33.3311C12.3455 39.3135 11.3556 45.8878 12.1069 52.3792C12.8582 58.8705 15.3236 65.045 19.2499 70.2686L17.1374 72.3874C16.9046 72.6216 16.7739 72.9384 16.7739 73.2686C16.7739 73.5989 16.9046 73.9157 17.1374 74.1499L22.6187 79.6311C22.852 79.8659 23.169 79.9985 23.4999 79.9999C23.6649 80 23.8282 79.9675 23.9805 79.9042C24.1329 79.8409 24.2712 79.7481 24.3874 79.6311L29.8749 74.1499C30.1078 73.9157 30.2384 73.5989 30.2384 73.2686C30.2384 72.9384 30.1078 72.6216 29.8749 72.3874L24.4062 66.8749ZM73.7812 19.2811L77.4937 22.9936L73.7812 26.7061L70.0687 22.9936L73.7812 19.2811ZM41.7499 2.89362C41.9357 2.70635 42.1729 2.57849 42.4314 2.52624C42.6899 2.474 42.9582 2.49973 43.202 2.60017C43.4459 2.70061 43.6545 2.87123 43.8012 3.09039C43.948 3.30954 44.0263 3.56736 44.0263 3.83112C44.0263 4.09487 43.948 4.35269 43.8012 4.57184C43.6545 4.791 43.4459 4.96162 43.202 5.06206C42.9582 5.1625 42.6899 5.18823 42.4314 5.13599C42.1729 5.08374 41.9357 4.95588 41.7499 4.76862C41.6267 4.64556 41.529 4.49942 41.4623 4.33855C41.3956 4.17769 41.3613 4.00526 41.3613 3.83112C41.3613 3.65697 41.3956 3.48454 41.4623 3.32368C41.529 3.16281 41.6267 3.01667 41.7499 2.89362ZM20.7499 20.2499C21.1129 19.8852 21.5444 19.5957 22.0195 19.3983C22.4947 19.2008 23.0041 19.0991 23.5187 19.0991C24.0332 19.0991 24.5427 19.2008 25.0179 19.3983C25.493 19.5957 25.9245 19.8852 26.2874 20.2499C26.8361 20.7977 27.21 21.4959 27.3617 22.2562C27.5134 23.0166 27.4362 23.8048 27.1397 24.5212C26.8433 25.2377 26.3411 25.8501 25.6965 26.2809C25.0519 26.7118 24.294 26.9418 23.5187 26.9418C22.7434 26.9418 21.9855 26.7118 21.3409 26.2809C20.6963 25.8501 20.194 25.2377 19.8976 24.5212C19.6012 23.8048 19.524 23.0166 19.6757 22.2562C19.8274 21.4959 20.2013 20.7977 20.7499 20.2499ZM5.27494 43.1249C5.01974 43.3377 4.69419 43.4474 4.36224 43.4324C4.0303 43.4174 3.71596 43.2788 3.481 43.0438C3.24604 42.8088 3.10744 42.4945 3.09244 42.1626C3.07744 41.8306 3.18712 41.5051 3.39994 41.2499C3.65007 41.004 3.98674 40.8663 4.33744 40.8663C4.68814 40.8663 5.02481 41.004 5.27494 41.2499C5.39815 41.3729 5.4959 41.5191 5.56259 41.6799C5.62928 41.8408 5.66361 42.0132 5.66361 42.1874C5.66361 42.3615 5.62928 42.5339 5.56259 42.6948C5.4959 42.8557 5.39815 43.0018 5.27494 43.1249ZM23.5187 76.9561L19.8062 73.2436L23.5187 69.5311L27.2312 73.2436L23.5187 76.9561Z" fill="#272626" stroke="#272626" stroke-width="0.7"/>
</g>
<defs>
<clipPath id="clip0_295_1234">
<rect width="80" height="80" fill="white" transform="translate(0.5)"/>
</clipPath>
</defs>
</svg>
