<svg xmlns="http://www.w3.org/2000/svg" width="68" height="67" viewBox="0 0 68 67" fill="none">
<mask id="path-1-outside-1_295_1285" maskUnits="userSpaceOnUse" x="-0.356445" y="-0.546875" width="68" height="68" fill="black">
<rect fill="white" x="-0.356445" y="-0.546875" width="68" height="68"/>
<path fill-rule="evenodd" clip-rule="evenodd" d="M26.9191 35.5741L1.64355 32.761L2.19664 27.7916L27.4713 30.6047L9.91495 12.2003L13.5329 8.74913L31.0866 27.1508L29.4688 1.77121L34.4586 1.45312L36.0767 26.8366L51.1506 6.35133L55.1778 9.31471L40.1041 29.7998L64.8198 23.7959L66 28.6546L41.289 34.6573L64.0787 45.9445L61.8596 50.4251L39.0644 39.1352L49.2687 62.4356L44.6887 64.4414L34.4868 41.1466L27.3293 65.5478L22.5315 64.1405L29.6898 39.7362L8.51627 53.8313L5.74558 49.6692L26.9191 35.5741Z"/>
</mask>
<path fill-rule="evenodd" clip-rule="evenodd" d="M26.9191 35.5741L1.64355 32.761L2.19664 27.7916L27.4713 30.6047L9.91495 12.2003L13.5329 8.74913L31.0866 27.1508L29.4688 1.77121L34.4586 1.45312L36.0767 26.8366L51.1506 6.35133L55.1778 9.31471L40.1041 29.7998L64.8198 23.7959L66 28.6546L41.289 34.6573L64.0787 45.9445L61.8596 50.4251L39.0644 39.1352L49.2687 62.4356L44.6887 64.4414L34.4868 41.1466L27.3293 65.5478L22.5315 64.1405L29.6898 39.7362L8.51627 53.8313L5.74558 49.6692L26.9191 35.5741Z" fill="#6172F8"/>
<path d="M26.9191 35.5741L27.4733 36.4066L29.7602 34.8842L27.0298 34.5803L26.9191 35.5741ZM1.64355 32.761L0.649692 32.6503L0.539075 33.6442L1.53294 33.7548L1.64355 32.761ZM2.19664 27.7916L2.30726 26.7978L1.31339 26.6872L1.20278 27.681L2.19664 27.7916ZM27.4713 30.6047L27.3607 31.5986L30.0913 31.9025L28.1949 29.9145L27.4713 30.6047ZM9.91495 12.2003L9.22471 11.4767L8.50113 12.167L9.19137 12.8906L9.91495 12.2003ZM13.5329 8.74913L14.2564 8.05889L13.5662 7.33531L12.8426 8.02555L13.5329 8.74913ZM31.0866 27.1508L30.363 27.841L32.2593 29.8289L32.0846 27.0872L31.0866 27.1508ZM29.4688 1.77121L29.4052 0.773231L28.4072 0.836847L28.4708 1.83482L29.4688 1.77121ZM34.4586 1.45312L35.4566 1.38951L35.393 0.391535L34.395 0.455151L34.4586 1.45312ZM36.0767 26.8366L35.0787 26.9002L35.2536 29.6425L36.8822 27.4293L36.0767 26.8366ZM51.1506 6.35133L51.7433 5.54589L50.9378 4.95321L50.3452 5.75865L51.1506 6.35133ZM55.1778 9.31471L55.9833 9.90739L56.5759 9.10194L55.7705 8.50927L55.1778 9.31471ZM40.1041 29.7998L39.2986 29.2071L37.6702 31.4201L40.3401 30.7715L40.1041 29.7998ZM64.8198 23.7959L65.7915 23.5598L65.5554 22.5881L64.5837 22.8241L64.8198 23.7959ZM66 28.6546L66.2361 29.6263L67.2078 29.3903L66.9718 28.4185L66 28.6546ZM41.289 34.6573L41.053 33.6856L38.3833 34.3341L40.8452 35.5534L41.289 34.6573ZM64.0787 45.9445L64.9748 46.3883L65.4186 45.4922L64.5225 45.0484L64.0787 45.9445ZM61.8596 50.4251L61.4157 51.3212L62.3119 51.765L62.7557 50.8689L61.8596 50.4251ZM39.0644 39.1352L39.5082 38.239L37.0462 37.0197L38.1484 39.5363L39.0644 39.1352ZM49.2687 62.4356L49.6699 63.3516L50.5859 62.9504L50.1848 62.0344L49.2687 62.4356ZM44.6887 64.4414L43.7727 64.8426L44.1739 65.7586L45.0899 65.3574L44.6887 64.4414ZM34.4868 41.1466L35.4028 40.7454L34.3006 38.2286L33.5272 40.8651L34.4868 41.1466ZM27.3293 65.5478L27.0478 66.5074L28.0074 66.7889L28.2889 65.8293L27.3293 65.5478ZM22.5315 64.1405L21.5719 63.859L21.2904 64.8186L22.25 65.1001L22.5315 64.1405ZM29.6898 39.7362L30.6494 40.0177L31.4227 37.3814L29.1357 38.9038L29.6898 39.7362ZM8.51627 53.8313L7.68385 54.3854L8.23799 55.2179L9.07041 54.6637L8.51627 53.8313ZM5.74558 49.6692L5.19145 48.8368L4.35902 49.3909L4.91316 50.2233L5.74558 49.6692ZM27.0298 34.5803L1.75417 31.7671L1.53294 33.7548L26.8085 36.568L27.0298 34.5803ZM2.63742 32.8716L3.1905 27.9023L1.20278 27.681L0.649692 32.6503L2.63742 32.8716ZM2.08602 28.7855L27.3607 31.5986L27.5819 29.6108L2.30726 26.7978L2.08602 28.7855ZM28.1949 29.9145L10.6385 11.5101L9.19137 12.8906L26.7477 31.295L28.1949 29.9145ZM10.6052 12.9239L14.2231 9.47271L12.8426 8.02555L9.22471 11.4767L10.6052 12.9239ZM12.8093 9.43937L30.363 27.841L31.8102 26.4605L14.2564 8.05889L12.8093 9.43937ZM32.0846 27.0872L30.4667 1.70759L28.4708 1.83482L30.0886 27.2144L32.0846 27.0872ZM29.5324 2.76918L34.5223 2.4511L34.395 0.455151L29.4052 0.773231L29.5324 2.76918ZM33.4607 1.51674L35.0787 26.9002L37.0747 26.773L35.4566 1.38951L33.4607 1.51674ZM36.8822 27.4293L51.9561 6.94401L50.3452 5.75865L35.2713 26.2439L36.8822 27.4293ZM50.5579 7.15677L54.5851 10.1202L55.7705 8.50927L51.7433 5.54589L50.5579 7.15677ZM54.3724 8.72203L39.2986 29.2071L40.9095 30.3925L55.9833 9.90739L54.3724 8.72203ZM40.3401 30.7715L65.0558 24.7676L64.5837 22.8241L39.868 28.828L40.3401 30.7715ZM63.848 24.0319L65.0283 28.8906L66.9718 28.4185L65.7915 23.5598L63.848 24.0319ZM65.764 27.6828L41.053 33.6856L41.5251 35.6291L66.2361 29.6263L65.764 27.6828ZM40.8452 35.5534L63.6349 46.8406L64.5225 45.0484L41.7329 33.7612L40.8452 35.5534ZM63.1826 45.5007L60.9635 49.9813L62.7557 50.8689L64.9748 46.3883L63.1826 45.5007ZM62.3034 49.529L39.5082 38.239L38.6206 40.0313L61.4157 51.3212L62.3034 49.529ZM38.1484 39.5363L48.3527 62.8367L50.1848 62.0344L39.9804 38.734L38.1484 39.5363ZM48.8676 61.5196L44.2876 63.5254L45.0899 65.3574L49.6699 63.3516L48.8676 61.5196ZM45.6047 64.0402L35.4028 40.7454L33.5708 41.5478L43.7727 64.8426L45.6047 64.0402ZM33.5272 40.8651L26.3697 65.2664L28.2889 65.8293L35.4464 41.4281L33.5272 40.8651ZM27.6108 64.5882L22.8129 63.1809L22.25 65.1001L27.0478 66.5074L27.6108 64.5882ZM23.491 64.422L30.6494 40.0177L28.7303 39.4548L21.5719 63.859L23.491 64.422ZM29.1357 38.9038L7.96213 52.9989L9.07041 54.6637L30.244 40.5687L29.1357 38.9038ZM9.3487 53.2772L6.57801 49.115L4.91316 50.2233L7.68385 54.3854L9.3487 53.2772ZM6.29972 50.5016L27.4733 36.4066L26.365 34.7417L5.19145 48.8368L6.29972 50.5016Z" fill="#6172F8" mask="url(#path-1-outside-1_295_1285)"/>
</svg>