<svg xmlns="http://www.w3.org/2000/svg" width="73" height="72" viewBox="0 0 73 72" fill="none">
  <g clip-path="url(#clip0_673_2970)">
    <path d="M68.0871 38.9443C69.4176 37.6166 70.1511 35.8503 70.152 33.9706C70.153 32.0909 69.4215 30.3238 68.0925 28.9946C67.4362 28.3373 66.6553 27.8177 65.7956 27.4662L68.6829 24.5898C70.0164 23.2626 70.752 21.4957 70.7542 19.6142C70.7563 17.7328 70.0251 15.9639 68.6947 14.6336L68.6199 14.5588C67.6315 13.5684 66.3686 12.8976 64.9946 12.633C65.0752 12.2055 65.118 11.7677 65.1185 11.3231C65.1206 9.44193 64.3892 7.67325 63.059 6.34318L62.9672 6.25142C61.639 4.92323 59.8732 4.19179 57.9949 4.19179C56.7268 4.19179 55.5105 4.52639 54.445 5.15182C54.0935 4.2012 53.5397 3.33825 52.822 2.62261L52.7615 2.56182C50.02 -0.17927 45.5589 -0.179702 42.8171 2.56197L24.0263 21.3531L26.3603 11.7143C27.2824 7.90588 25.2015 4.0224 21.5198 2.6808C19.4479 1.92574 17.1488 2.09772 15.212 3.15196C13.2752 4.20619 11.8829 6.04386 11.392 8.19381L11.072 9.59619C9.5411 16.302 7.0106 23.0407 3.55074 29.6245C0.958156 34.5579 -0.0292427 40.3274 0.770471 45.8704C1.59784 51.6055 4.20656 56.8085 8.31474 60.9166C13.3576 65.9596 20.0601 68.736 27.1911 68.7357H27.2093C34.3468 68.7311 41.0534 65.9452 46.0937 60.8915L51.4735 55.4975L68.0871 38.9443ZM43.0341 57.8399C38.8097 62.0755 33.1885 64.4104 27.2065 64.4145H27.1913C21.2149 64.4145 15.5967 62.0875 11.3703 57.861C7.92684 54.4178 5.74045 50.0579 5.04732 45.2535C4.37667 40.6048 5.20375 35.7681 7.37603 31.6346C11.0099 24.7197 13.6709 17.6285 15.2849 10.5578L15.6049 9.15557C15.823 8.20015 16.4172 7.41599 17.278 6.94743C18.1387 6.47887 19.1201 6.40569 20.0407 6.74102C21.653 7.32856 22.5645 9.02939 22.1606 10.6974L18.0166 27.8098C17.525 29.5738 19.7975 31.5386 21.6443 29.8461L45.8728 5.61765C46.9296 4.56053 48.6493 4.56082 49.7044 5.61563L49.7649 5.67627C50.2768 6.18833 50.5587 6.86878 50.5587 7.59288C50.5587 8.31697 50.2766 8.99756 49.7649 9.50962L34.8766 24.3978C34.0328 25.2415 34.0328 26.6096 34.8766 27.4533C35.7203 28.2971 37.0884 28.2971 37.9321 27.4533L56.0786 9.3071C56.5905 8.79504 57.2711 8.51315 57.9952 8.51315C58.7193 8.51315 59.3999 8.79504 59.912 9.3071L60.0037 9.39886C60.2566 9.65032 60.457 9.9495 60.5933 10.279C60.7295 10.6086 60.799 10.9619 60.7977 11.3185C60.7982 11.6752 60.7279 12.0284 60.5908 12.3577C60.4537 12.687 60.2526 12.9858 59.9991 13.2367C54.5816 18.6326 47.1724 26.0098 41.8095 31.3545C40.964 32.1967 40.9614 33.5647 41.8035 34.4102C42.004 34.612 42.2425 34.7721 42.5052 34.8813C42.7679 34.9904 43.0497 35.0464 43.3342 35.046C43.8857 35.046 44.4374 34.8361 44.8589 34.4163C48.4639 30.8252 58.286 21.0411 61.7358 17.6099C62.7926 16.5583 64.5102 16.5603 65.5645 17.6144L65.6392 17.6891C66.1521 18.202 66.434 18.8838 66.4331 19.609C66.4322 20.3343 66.1486 21.0154 65.634 21.5277C60.3789 26.7619 52.0564 35.0506 46.8476 40.2434C46.0022 41.0858 45.9997 42.4537 46.8419 43.2991C47.0424 43.5009 47.2809 43.6609 47.5436 43.77C47.8063 43.8791 48.088 43.9351 48.3724 43.9348C48.924 43.9348 49.4758 43.7248 49.8972 43.3049L59.8048 33.4346L61.2135 32.0403C62.2703 30.9943 63.9856 30.999 65.0369 32.0501C65.2896 32.3014 65.4899 32.6003 65.6261 32.9296C65.7624 33.2588 65.8319 33.6118 65.8307 33.9682C65.8316 34.3243 65.7618 34.677 65.6254 35.0059C65.4889 35.3348 65.2886 35.6334 65.0359 35.8843L48.4187 52.4411L43.0341 57.8399ZM65.48 53.9427C65.9496 52.8458 65.441 51.5757 64.3441 51.1063C63.2471 50.6364 61.9771 51.1451 61.5075 52.2422C60.7827 53.9352 59.7482 55.4607 58.4328 56.7761C56.8257 58.383 54.9269 59.5594 52.7887 60.2726C51.6567 60.6501 51.0451 61.8737 51.4226 63.0059C51.7245 63.911 52.5675 64.4835 53.472 64.4835C53.6986 64.4835 53.9291 64.4476 54.156 64.372C56.9359 63.4446 59.4031 61.9172 61.4885 59.8317C63.1946 58.1252 64.5377 56.1439 65.48 53.9427ZM71.1901 55.1343C70.0932 54.6642 68.823 55.1719 68.3529 56.2688C67.3433 58.6237 65.9038 60.7455 64.0743 62.5749C61.9465 64.7027 59.4437 66.2922 56.6355 67.2989C55.5122 67.7016 54.928 68.9386 55.3307 70.062C55.6471 70.9444 56.4783 71.4939 57.3647 71.4939C57.6067 71.4939 57.8529 71.453 58.0939 71.3666C61.5074 70.1428 64.5475 68.2128 67.1298 65.6304C69.3498 63.4106 71.0974 60.8338 72.3245 57.9714C72.7947 56.8747 72.2868 55.6045 71.1901 55.1343Z" fill="white"/>
  </g>
  <defs>
    <clipPath id="clip0_673_2970">
      <rect width="72" height="72" fill="white" transform="translate(0.5)"/>
    </clipPath>
  </defs>
</svg>